<svg width="40" height="40" viewBox="0 0 40 40" fill="none" xmlns="http://www.w3.org/2000/svg">
<path fill-rule="evenodd" clip-rule="evenodd" d="M11.7227 10C12.2127 6.35864 15.8516 3.33333 20 3.33333C24.1484 3.33333 27.7874 6.35864 28.2773 10H33.0783C34.9193 10 36.4117 11.4924 36.4117 13.3333C36.4117 13.4911 36.4005 13.6486 36.3782 13.8047L33.521 33.8047C33.2864 35.4469 31.88 36.6667 30.2212 36.6667H9.77883C8.12 36.6667 6.71359 35.4469 6.479 33.8047L3.62186 13.8047C3.36151 11.9823 4.62784 10.2938 6.45028 10.0335C6.60643 10.0112 6.76396 10 6.92169 10H11.7227ZM24.8798 9.99999C24.3732 8.23012 22.3301 6.66666 20 6.66666C17.67 6.66666 15.6269 8.23012 15.1202 9.99999H24.8798ZM6.92168 13.3333H11.6667V16.6667H15V13.3333H25V16.6667H28.3333V13.3333H33.0783L30.2212 33.3333H9.77883L6.92168 13.3333Z" fill="white"/>
</svg>
