<svg width="40" height="40" viewBox="0 0 40 40" fill="none" xmlns="http://www.w3.org/2000/svg">
<g clip-path="url(#clip0)">
<path d="M40 20C40 8.95451 31.0454 0 20 0C8.95451 0 0 8.95451 0 20C0 31.0454 8.95451 40 20 40C31.0454 40 40 31.0454 40 20ZM1.81817 20C1.81817 9.95817 9.95817 1.81817 20 1.81817C30.0418 1.81817 38.1818 9.95817 38.1818 20C38.1818 30.0418 30.0418 38.1818 20 38.1818C9.95817 38.1818 1.81817 30.0418 1.81817 20Z" fill="white"/>
<path d="M20.7672 31.5436V20H24.5763L25.1781 16.1746H20.7672V14.2564C20.7672 13.2582 21.0945 12.3055 22.5272 12.3055H25.3908V8.48732H21.3254C17.9072 8.48732 16.9745 10.7382 16.9745 13.8582V16.1728H14.6291V20H16.9745V31.5436H20.7672Z" fill="white"/>
</g>
<defs>
<clipPath id="clip0">
<rect width="40" height="40" fill="white"/>
</clipPath>
</defs>
</svg>
