<svg width="40" height="40" viewBox="0 0 40 40" fill="none" xmlns="http://www.w3.org/2000/svg">
<g clip-path="url(#clip0)">
<path d="M40 20C40 8.95451 31.0454 0 20 0C8.95451 0 0 8.95451 0 20C0 31.0454 8.95451 40 20 40C31.0454 40 40 31.0454 40 20ZM1.81817 20C1.81817 9.95817 9.95817 1.81817 20 1.81817C30.0418 1.81817 38.1818 9.95817 38.1818 20C38.1818 30.0418 30.0418 38.1818 20 38.1818C9.95817 38.1818 1.81817 30.0418 1.81817 20Z" fill="white"/>
<path d="M12.6741 9.16667H28.1595C29.6301 9.16667 30.8333 10.2555 30.8333 11.8405V27.3262C30.8333 28.9112 29.6301 30 28.1595 30H12.6741C11.203 30 10 28.9112 10 27.3262V11.8405C10 10.2555 11.203 9.16667 12.6741 9.16667ZM25.1763 11.4813C24.6604 11.4813 24.2388 11.9032 24.2388 12.4193V14.6643C24.2388 15.1802 24.6604 15.6022 25.1763 15.6022H27.531C28.047 15.6022 28.469 15.1802 28.469 14.6643V12.4193C28.469 11.9032 28.047 11.4813 27.531 11.4813H25.1763ZM28.4788 17.977H26.6452C26.8187 18.5434 26.9126 19.1434 26.9126 19.7642C26.9126 23.2295 24.0129 26.0385 20.4366 26.0385C16.8604 26.0385 13.9611 23.2295 13.9611 19.7642C13.9611 19.143 14.0548 18.5432 14.2285 17.977H12.3151V26.7773C12.3151 27.2327 12.6878 27.6055 13.1434 27.6055H27.651C28.1066 27.6055 28.4793 27.2329 28.4793 26.7773L28.4788 17.977ZM20.4363 15.4839C18.1257 15.4839 16.2523 17.2989 16.2523 19.5381C16.2523 21.7773 18.1257 23.5923 20.4363 23.5923C22.7472 23.5923 24.6208 21.7773 24.6208 19.5381C24.6208 17.2989 22.7474 15.4839 20.4363 15.4839Z" fill="white"/>
</g>
<defs>
<clipPath id="clip0">
<rect width="40" height="40" fill="white"/>
</clipPath>
</defs>
</svg>
