<svg width="40" height="40" viewBox="0 0 40 40" fill="none" xmlns="http://www.w3.org/2000/svg">
<g clip-path="url(#clip0)">
<path d="M40 20C40 8.95451 31.0454 0 20 0C8.95451 0 0 8.95451 0 20C0 31.0454 8.95451 40 20 40C31.0454 40 40 31.0454 40 20ZM1.81817 20C1.81817 9.95817 9.95817 1.81817 20 1.81817C30.0418 1.81817 38.1818 9.95817 38.1818 20C38.1818 30.0418 30.0418 38.1818 20 38.1818C9.95817 38.1818 1.81817 30.0418 1.81817 20Z" fill="white"/>
<g clip-path="url(#clip1)">
<path d="M30.4249 24.4026C27.6396 23.9442 26.3843 21.0912 26.3335 20.9701C26.3296 20.9623 26.327 20.9545 26.3218 20.9467C26.1799 20.6576 26.146 20.4193 26.2242 20.2383C26.3765 19.8815 26.9599 19.6966 27.3453 19.5742C27.4573 19.5391 27.5628 19.5052 27.65 19.4713C28.0302 19.3216 28.3011 19.1588 28.4808 18.9752C28.6943 18.7552 28.736 18.5442 28.7334 18.4075C28.7269 18.0741 28.4717 17.7773 28.0641 17.6327C27.9274 17.5767 27.7698 17.5468 27.6109 17.5468C27.5029 17.5468 27.3414 17.5611 27.1891 17.6327C26.8635 17.7851 26.5718 17.8684 26.3205 17.8801C26.1877 17.8736 26.094 17.845 26.0328 17.8176C26.0406 17.6874 26.0484 17.5533 26.0575 17.4153L26.0614 17.3554C26.1512 15.9451 26.2619 14.1911 25.7958 13.1494C25.4767 12.4359 25.0483 11.8225 24.521 11.3251C24.0795 10.9084 23.5665 10.5699 22.9962 10.3199C22.0052 9.88235 21.0807 9.81725 20.6171 9.81725H20.6158C20.5976 9.81725 20.5807 9.81725 20.5651 9.81725C20.4361 9.81855 20.2265 9.82115 20.207 9.82115C19.7447 9.82115 18.8189 9.88626 17.8253 10.3238C17.2563 10.5738 16.7459 10.911 16.3057 11.3277C15.781 11.8252 15.3539 12.4372 15.0362 13.1481C14.57 14.1885 14.6807 15.9425 14.7692 17.3515V17.3541C14.7783 17.5051 14.7887 17.6627 14.7979 17.8163C14.7301 17.8463 14.6195 17.8801 14.4567 17.8801C14.1937 17.8801 13.8812 17.7968 13.5283 17.6314C13.4241 17.5832 13.3056 17.5585 13.1754 17.5585C12.9657 17.5585 12.7431 17.6197 12.5517 17.733C12.3095 17.8749 12.1532 18.0741 12.1102 18.2968C12.0829 18.4426 12.0842 18.733 12.4071 19.0273C12.5855 19.1888 12.8459 19.3385 13.1832 19.4713C13.2717 19.5065 13.3772 19.5391 13.4879 19.5742C13.8733 19.6966 14.458 19.8815 14.6104 20.2383C14.6872 20.4193 14.6533 20.6576 14.5114 20.9467C14.5075 20.9545 14.5036 20.9623 14.501 20.9701C14.4645 21.0534 14.1325 21.8022 13.4514 22.5926C13.0647 23.0418 12.6389 23.4181 12.1858 23.7098C11.6324 24.0666 11.0347 24.2984 10.4083 24.4013C10.1622 24.4416 9.98644 24.6604 10.0008 24.9091C10.0047 24.9807 10.0216 25.0523 10.0515 25.1213V25.1226C10.1518 25.3557 10.3823 25.5524 10.7573 25.7255C11.2157 25.9378 11.9006 26.1162 12.7952 26.2555C12.8407 26.3415 12.8876 26.5563 12.9202 26.7035C12.954 26.8597 12.9892 27.0212 13.04 27.1918C13.0947 27.3767 13.2353 27.598 13.5986 27.598C13.7366 27.598 13.8942 27.5668 14.0778 27.5316C14.346 27.4795 14.7132 27.4079 15.1703 27.4079C15.4242 27.4079 15.6872 27.43 15.9516 27.4743C16.462 27.559 16.9021 27.8689 17.4113 28.2283C18.1561 28.7543 18.9999 29.3494 20.289 29.3494C20.3242 29.3494 20.3593 29.3481 20.3945 29.3455C20.4361 29.3481 20.4895 29.3494 20.5442 29.3494C21.8333 29.3494 22.6771 28.7543 23.422 28.2296L23.4233 28.2283C23.9324 27.8702 24.3725 27.5603 24.883 27.4756C25.1473 27.4313 25.4103 27.4092 25.6642 27.4092C26.1018 27.4092 26.4481 27.4652 26.7567 27.5251C26.9586 27.5642 27.1148 27.5837 27.2359 27.5837H27.2477H27.2594C27.525 27.5837 27.7203 27.4379 27.7945 27.1839C27.844 27.016 27.8792 26.8597 27.9143 26.6995C27.9443 26.5615 27.9938 26.3402 28.0381 26.2542C28.9326 26.1136 29.6176 25.9365 30.0759 25.7242C30.4496 25.5511 30.6801 25.3544 30.7804 25.1226C30.8103 25.0536 30.8285 24.982 30.8324 24.9078C30.8468 24.6617 30.671 24.4416 30.4249 24.4026Z" fill="white"/>
</g>
</g>
<defs>
<clipPath id="clip0">
<rect width="40" height="40" fill="white"/>
</clipPath>
<clipPath id="clip1">
<rect width="20.8333" height="20.8333" fill="white" transform="translate(10 9.16667)"/>
</clipPath>
</defs>
</svg>
